<?xml version="1.0" encoding="UTF-8" standalone="no"?>
<!-- Created with Inkscape (http://www.inkscape.org/) -->

<svg
   xmlns:dc="http://purl.org/dc/elements/1.1/"
   xmlns:cc="http://creativecommons.org/ns#"
   xmlns:rdf="http://www.w3.org/1999/02/22-rdf-syntax-ns#"
   xmlns:svg="http://www.w3.org/2000/svg"
   xmlns="http://www.w3.org/2000/svg"
   xmlns:sodipodi="http://sodipodi.sourceforge.net/DTD/sodipodi-0.dtd"
   xmlns:inkscape="http://www.inkscape.org/namespaces/inkscape"
   width="400"
   height="400"
   id="svg2"
   version="1.1"
   inkscape:version="0.48.0 r9654"
   sodipodi:docname="Nœud_d'arrimeur.svg">
  <defs
     id="defs4" />
  <sodipodi:namedview
     id="base"
     pagecolor="#ffffff"
     bordercolor="#666666"
     borderopacity="1.0"
     inkscape:pageopacity="0.0"
     inkscape:pageshadow="2"
     inkscape:zoom="0.9899495"
     inkscape:cx="238.74213"
     inkscape:cy="236.49479"
     inkscape:document-units="px"
     inkscape:current-layer="layer1"
     showgrid="false"
     inkscape:window-width="1280"
     inkscape:window-height="725"
     inkscape:window-x="0"
     inkscape:window-y="25"
     inkscape:window-maximized="1"
     fit-margin-top="0"
     fit-margin-left="0"
     fit-margin-right="0"
     fit-margin-bottom="0" />
  <metadata
     id="metadata7">
    <rdf:RDF>
      <cc:Work
         rdf:about="">
        <dc:format>image/svg+xml</dc:format>
        <dc:type
           rdf:resource="http://purl.org/dc/dcmitype/StillImage" />
        <dc:title />
      </cc:Work>
    </rdf:RDF>
  </metadata>
  <g
     inkscape:label="Calque 1"
     inkscape:groupmode="layer"
     id="layer1"
     transform="translate(-179.11857,-565.85143)">
    <path
       style="fill:none;stroke:#000000;stroke-width:6;stroke-linecap:butt;stroke-linejoin:miter;stroke-miterlimit:4;stroke-opacity:1;stroke-dasharray:none"
       d="m 224.09117,942.9835 c 8.42864,-28.03721 21.10999,-59.74482 18.07023,-92.0324 -2.76705,-33.39485 -30.95838,-63.79778 -28.289,-91.55834 4.22377,-23.72399 20.32377,-30.12934 24.24772,-51.50156 1.30183,-23.66539 -4.58966,-48.98642 -0.67355,-73.24668 6.09961,-26.44975 41.00564,-43.5219 66.00771,-39.48453 25.00207,4.03739 42.42563,31.96963 31.65673,60.08517 -11.03865,24.31706 -40.78774,28.61724 -71.39607,32.04541 -30.75721,4.0482 -48.26405,2.60752 -51.18963,16.02271 -2.03149,20.80058 38.89146,39.44189 36.37158,60.6574 -5.19966,41.30074 -54.03916,43.47581 -57.92512,74.39115 -4.96867,45.85059 77.14257,75.28765 114.50314,51.50156 19.0901,-12.20512 22.06806,-27.82117 28.28902,-48.06811"
       id="path3845"
       inkscape:connector-curvature="0"
       sodipodi:nodetypes="ccccczccccccc" />
    <path
       style="fill:none;stroke:#000000;stroke-width:6;stroke-linecap:butt;stroke-linejoin:miter;stroke-miterlimit:4;stroke-opacity:1;stroke-dasharray:none"
       d="m 408.99689,960.87108 c 9.38116,-27.22794 41.11333,-65.40969 38.07358,-97.69727 1.04311,-32.5856 -9.04995,-62.17925 -6.38057,-89.93981 4.22377,-23.72399 20.32376,-30.12934 24.24772,-51.50156 1.30183,-23.6654 -4.58966,-48.98643 -0.67355,-73.24669 6.09962,-26.44974 38.14801,-42.71263 63.15008,-38.67525 25.00207,4.03739 45.28326,31.16036 34.51436,59.27588 -11.03865,24.31708 -40.78774,28.61726 -71.39607,32.04543 -30.75721,4.0482 -43.50135,3.4168 -46.42693,16.83199 -2.03148,20.80057 26.50843,42.67895 23.98855,63.89446 -5.19966,41.30075 -42.60867,45.90362 -46.49463,76.81896 -4.96867,45.8506 73.33241,34.01493 80.21168,-1.9102 6.70706,-37.29247 -0.97283,-92.12871 9.23821,-142.75259 10.21102,-50.62389 24.40042,-102.70283 39.8406,-137.33186"
       id="path3845-4"
       inkscape:connector-curvature="0"
       sodipodi:nodetypes="ccccczcccccczc" />
    <path
       sodipodi:nodetypes="ccccczccccccc"
       inkscape:connector-curvature="0"
       id="path3869"
       d="m 224.09117,942.9835 c 8.42864,-28.03721 21.10999,-59.74482 18.07023,-92.0324 -2.76705,-33.39485 -30.95838,-63.79778 -28.289,-91.55834 4.22377,-23.72399 20.32377,-30.12934 24.24772,-51.50156 1.30183,-23.66539 -4.58966,-48.98642 -0.67355,-73.24668 6.09961,-26.44975 41.00564,-43.5219 66.00771,-39.48453 25.00207,4.03739 42.42563,31.96963 31.65673,60.08517 -11.03865,24.31706 -40.78774,28.61724 -71.39607,32.04541 -30.75721,4.0482 -48.26405,2.60752 -51.18963,16.02271 -2.03149,20.80058 38.89146,39.44189 36.37158,60.6574 -5.19966,41.30074 -54.03916,43.47581 -57.92512,74.39115 -4.96867,45.85059 77.14257,75.28765 114.50314,51.50156 19.0901,-12.20512 22.06806,-27.82117 28.28902,-48.06811"
       style="fill:none;stroke:#ffffff;stroke-width:4.50000000000000000;stroke-linecap:butt;stroke-linejoin:miter;stroke-miterlimit:4;stroke-opacity:1;stroke-dasharray:none" />
    <path
       sodipodi:nodetypes="ccccczcccccczc"
       inkscape:connector-curvature="0"
       id="path3871"
       d="m 408.99689,960.87108 c 9.38116,-27.22794 41.11333,-65.40969 38.07358,-97.69727 1.04311,-32.5856 -9.04995,-62.17925 -6.38057,-89.93981 4.22377,-23.72399 20.32376,-30.12934 24.24772,-51.50156 1.30183,-23.6654 -4.58966,-48.98643 -0.67355,-73.24669 6.09962,-26.44974 38.14801,-42.71263 63.15008,-38.67525 25.00207,4.03739 45.28326,31.16036 34.51436,59.27588 -11.03865,24.31708 -40.78774,28.61726 -71.39607,32.04543 -30.75721,4.0482 -43.50135,3.4168 -46.42693,16.83199 -2.03148,20.80057 26.50843,42.67895 23.98855,63.89446 -5.19966,41.30075 -42.60867,45.90362 -46.49463,76.81896 -4.96867,45.8506 73.33241,34.01493 80.21168,-1.9102 6.70706,-37.29247 -0.97283,-92.12871 9.23821,-142.75259 10.21102,-50.62389 24.40042,-102.70283 39.8406,-137.33186"
       style="fill:none;stroke:#ffffff;stroke-width:4.50000000000000000;stroke-linecap:butt;stroke-linejoin:miter;stroke-miterlimit:4;stroke-opacity:1;stroke-dasharray:none" />
    <path
       style="fill:none;stroke:#000000;stroke-width:6;stroke-linecap:butt;stroke-linejoin:miter;stroke-miterlimit:4;stroke-opacity:1;stroke-dasharray:none"
       d="m 238.25568,696.14589 c -0.14085,-5.68524 -0.52639,-11.43768 -0.93441,-17.2218"
       id="path2988"
       inkscape:connector-curvature="0"
       sodipodi:nodetypes="cc" />
    <path
       sodipodi:nodetypes="cc"
       inkscape:connector-curvature="0"
       id="path2990"
       d="m 238.30975,699.67306 c -0.0395,-7.48336 -0.58797,-15.09724 -1.13078,-22.75938"
       style="fill:none;stroke:#ffffff;stroke-width:4.5;stroke-linecap:butt;stroke-linejoin:miter;stroke-miterlimit:4;stroke-opacity:1;stroke-dasharray:none" />
    <path
       sodipodi:nodetypes="cc"
       inkscape:connector-curvature="0"
       id="path2992"
       d="m 220.5495,722.30261 c 9.18541,11.17698 23.40758,22.13916 27.39051,33.72345"
       style="fill:none;stroke:#000000;stroke-width:6;stroke-linecap:butt;stroke-linejoin:miter;stroke-miterlimit:4;stroke-opacity:1;stroke-dasharray:none" />
    <path
       style="fill:none;stroke:#ffffff;stroke-width:4.5;stroke-linecap:butt;stroke-linejoin:miter;stroke-miterlimit:4;stroke-opacity:1;stroke-dasharray:none"
       d="m 218.78054,720.05937 c 10.91334,14.48707 31.94423,28.52194 30.11635,43.91131"
       id="path2994"
       inkscape:connector-curvature="0"
       sodipodi:nodetypes="cc" />
    <path
       style="fill:none;stroke:#000000;stroke-width:6;stroke-linecap:butt;stroke-linejoin:miter;stroke-miterlimit:4;stroke-opacity:1;stroke-dasharray:none"
       d="m 229.63367,889.06304 c 5.78557,2.57604 11.90964,4.66274 18.14594,6.19694"
       id="path2996"
       inkscape:connector-curvature="0"
       sodipodi:nodetypes="cc" />
    <path
       sodipodi:nodetypes="cc"
       inkscape:connector-curvature="0"
       id="path2998"
       d="m 226.36263,887.53653 c 7.74125,3.78321 16.19938,6.66988 24.79189,8.49736"
       style="fill:none;stroke:#ffffff;stroke-width:4.5;stroke-linecap:butt;stroke-linejoin:miter;stroke-miterlimit:4;stroke-opacity:1;stroke-dasharray:none" />
    <path
       sodipodi:nodetypes="cc"
       inkscape:connector-curvature="0"
       id="path3873"
       d="m 227.97281,807.35849 c -2.13245,-4.6019 -4.26301,-9.14036 -6.20312,-13.61655"
       style="fill:none;stroke:#000000;stroke-width:6;stroke-linecap:butt;stroke-linejoin:miter;stroke-miterlimit:4;stroke-opacity:1;stroke-dasharray:none" />
    <path
       style="fill:none;stroke:#ffffff;stroke-width:4.5;stroke-linecap:butt;stroke-linejoin:miter;stroke-miterlimit:4;stroke-opacity:1;stroke-dasharray:none"
       d="m 230.79692,813.52384 c -3.67989,-8.17495 -7.61172,-16.15292 -10.77646,-23.94025"
       id="path3875"
       inkscape:connector-curvature="0"
       sodipodi:nodetypes="cc" />
    <path
       style="fill:none;stroke:#000000;stroke-width:6;stroke-linecap:butt;stroke-linejoin:miter;stroke-miterlimit:4;stroke-opacity:1;stroke-dasharray:none"
       d="m 465.10929,716.85078 c 0.14012,-8.43258 -0.47169,-17.04844 -1.08675,-25.72795"
       id="path3004"
       inkscape:connector-curvature="0"
       sodipodi:nodetypes="cc" />
    <path
       sodipodi:nodetypes="cc"
       inkscape:connector-curvature="0"
       id="path3006"
       d="m 464.93762,721.73244 c 1.30183,-23.6654 -4.58966,-48.98643 -0.67355,-73.24669"
       style="fill:none;stroke:#ffffff;stroke-width:4.5;stroke-linecap:butt;stroke-linejoin:miter;stroke-miterlimit:4;stroke-opacity:1;stroke-dasharray:none" />
    <path
       sodipodi:nodetypes="cc"
       inkscape:connector-curvature="0"
       id="path3008"
       d="m 530.59706,693.94944 c -10.49545,3.35185 -22.47127,5.1241 -34.75531,6.57385"
       style="fill:none;stroke:#000000;stroke-width:6;stroke-linecap:butt;stroke-linejoin:miter;stroke-miterlimit:4;stroke-opacity:1;stroke-dasharray:none" />
    <path
       style="fill:none;stroke:#ffffff;stroke-width:4.5;stroke-linecap:butt;stroke-linejoin:miter;stroke-miterlimit:4;stroke-opacity:1;stroke-dasharray:none"
       d="m 534.5046,692.59979 c -12.83082,4.78994 -28.2887,6.77545 -43.97216,8.53202"
       id="path3010"
       inkscape:connector-curvature="0"
       sodipodi:nodetypes="cc" />
    <path
       style="fill:none;stroke:#000000;stroke-width:6;stroke-linecap:butt;stroke-linejoin:miter;stroke-miterlimit:4;stroke-opacity:1;stroke-dasharray:none"
       d="m 448.40646,736.00152 c 5.30488,10.85074 13.98558,21.8526 17.86451,32.7746"
       id="path3012"
       inkscape:connector-curvature="0"
       sodipodi:nodetypes="cc" />
    <path
       sodipodi:nodetypes="cc"
       inkscape:connector-curvature="0"
       id="path3014"
       d="m 446.66282,732.11735 c 6.66095,16.43775 23.38536,33.28865 21.43124,49.74091"
       style="fill:none;stroke:#ffffff;stroke-width:4.5;stroke-linecap:butt;stroke-linejoin:miter;stroke-miterlimit:4;stroke-opacity:1;stroke-dasharray:none" />
    <path
       sodipodi:nodetypes="cc"
       inkscape:connector-curvature="0"
       id="path3016"
       d="m 434.03289,884.58576 c 19.5903,10.30322 56.01524,-0.0433 65.79107,-21.5955"
       style="fill:none;stroke:#000000;stroke-width:6;stroke-linecap:butt;stroke-linejoin:miter;stroke-miterlimit:4;stroke-opacity:1;stroke-dasharray:none" />
    <path
       style="fill:none;stroke:#ffffff;stroke-width:4.5;stroke-linecap:butt;stroke-linejoin:miter;stroke-miterlimit:4;stroke-opacity:1;stroke-dasharray:none"
       d="m 430.96226,882.69802 c 20.19546,14.45348 65.68032,1.06027 70.84885,-25.931"
       id="path3018"
       inkscape:connector-curvature="0"
       sodipodi:nodetypes="cc" />
    <path
       style="fill:none;stroke:#000000;stroke-width:6;stroke-linecap:butt;stroke-linejoin:miter;stroke-miterlimit:4;stroke-opacity:1;stroke-dasharray:none"
       d="m 532.9726,625.93802 c 2.47215,-8.06816 5.0178,-15.82964 7.62191,-23.18001"
       id="path3020"
       inkscape:connector-curvature="0"
       sodipodi:nodetypes="cc" />
    <path
       sodipodi:nodetypes="cc"
       inkscape:connector-curvature="0"
       id="path3022"
       d="m 531.86099,629.60289 c 3.10192,-10.33034 6.32534,-20.19415 9.63969,-29.37941"
       style="fill:none;stroke:#ffffff;stroke-width:4.5;stroke-linecap:butt;stroke-linejoin:miter;stroke-miterlimit:4;stroke-opacity:1;stroke-dasharray:none" />
    <path
       sodipodi:nodetypes="cc"
       inkscape:connector-curvature="0"
       id="path3000"
       d="m 445.8476,836.43837 c -2.1626,-20.17084 -6.20254,-39.21246 -5.53536,-57.44414"
       style="fill:none;stroke:#000000;stroke-width:6;stroke-linecap:butt;stroke-linejoin:miter;stroke-miterlimit:4;stroke-opacity:1;stroke-dasharray:none" />
    <path
       style="fill:none;stroke:#ffffff;stroke-width:4.5;stroke-linecap:butt;stroke-linejoin:miter;stroke-miterlimit:4;stroke-opacity:1;stroke-dasharray:none"
       d="M 446.35003,841.55789 C 444.20829,817.32542 438.62289,794.73015 440.6899,773.234"
       id="path3002"
       inkscape:connector-curvature="0"
       sodipodi:nodetypes="cc" />
  </g>
</svg>
