<?xml version="1.0" encoding="utf-8"?>
<!-- Generator: Adobe Illustrator 26.4.1, SVG Export Plug-In . SVG Version: 6.00 Build 0)  -->
<svg version="1.1" id="Capa_1" xmlns="http://www.w3.org/2000/svg" xmlns:xlink="http://www.w3.org/1999/xlink" x="0px" y="0px"
	 viewBox="0 0 821 768" style="enable-background:new 0 0 821 768;" xml:space="preserve">
<style type="text/css">
	.st0{fill:#D12521;}
	.st1{fill:#F9D4D4;}
	.st2{fill:#F7D116;}
	.st3{fill:#CA2420;}
	.st4{fill:#27295A;}
	.st5{fill:#F7C200;}
	.st6{fill:#42245D;}
	.st7{fill:#8F334C;}
	.st8{fill:#592A5C;}
	.st9{fill:#FFFFFF;}
	.st10{fill:#FAFAFA;}
	.st11{fill:#B6C9D8;}
	.st12{fill:#D02721;}
	.st13{fill:#D02621;}
	.st14{fill:#D02921;}
</style>
<g>
	<path class="st0" d="M772.27,136.2c-4.4,7.52-8.82,15.03-13.18,22.57c-36.95,63.87-73.88,127.75-110.82,191.63
		c-35.43,61.27-70.85,122.54-106.29,183.8c-36.84,63.7-73.69,127.4-110.53,191.1c-5.79,10.01-11.57,20.02-17.36,30.03
		c-0.64,1.11-1.31,2.21-1.97,3.32c-1.06-0.71-1.37-1.71-1.86-2.57C325.73,610.5,241.22,464.92,156.71,319.34
		c-34.97-60.23-69.94-120.46-104.92-180.68c-0.6-1.04-1.26-2.05-1.9-3.08c-0.71-1.2-0.55-2.53-0.55-3.83
		c-0.01-39.52-0.01-79.04,0.01-118.55c0-1.28-0.3-2.64,0.59-3.79c240.78,0,481.55,0,722.33,0
		C772.27,51.67,772.27,93.93,772.27,136.2z"/>
	<path class="st1" d="M49.94,9.41c-0.06,1.1-0.17,2.2-0.17,3.29c-0.01,39.76-0.01,79.51,0,119.27c0,1.2,0.08,2.41,0.12,3.61
		c-0.39-0.2-0.77-0.4-1.16-0.6c0-40.96,0-81.91,0-122.87c0-0.7,0.03-1.41-0.01-2.11C48.67,8.83,49.57,9.66,49.94,9.41z"/>
	<path class="st2" d="M411.34,721.61c-2.18-3.73-4.34-7.43-6.49-11.14c-19.4-33.39-38.8-66.77-58.19-100.16
		c-17.67-30.44-35.32-60.89-52.99-91.32c-15.75-27.13-31.53-54.25-47.28-81.38c-17.97-30.96-35.9-61.94-53.87-92.9
		c-13.98-24.09-28-48.16-41.99-72.24c-13.53-23.3-27.03-46.63-40.56-69.93c-12.62-21.74-25.25-43.48-37.91-65.19
		c-1.1-1.88-1.66-3.74-1.66-5.96c0.06-32.9,0.04-65.8,0.04-98.7c0-4.24-0.38-3.81,3.96-3.81c224.36,0,448.71,0,673.07,0
		c4.23,0,4.13-0.4,4.13,4.06c-0.01,32.7-0.02,65.4,0.02,98.1c0,2.08-0.46,3.86-1.52,5.68c-18.41,31.75-36.74,63.55-55.12,95.33
		c-15.25,26.38-30.54,52.73-45.8,79.11c-17.57,30.38-35.1,60.78-52.67,91.16c-15.81,27.33-31.66,54.64-47.47,81.97
		c-13.95,24.11-27.85,48.25-41.79,72.36c-13.59,23.5-27.22,46.99-40.81,70.49c-13.14,22.72-26.26,45.45-39.39,68.18
		c-4.58,7.92-9.14,15.85-13.75,23.76C412.81,719.91,412.49,720.91,411.34,721.61z"/>
	<path class="st0" d="M729.76,136.8c-5.39,9.3-10.75,18.62-16.17,27.91c-11.66,19.97-23.34,39.93-35.01,59.89
		c-15.23,26.04-30.46,52.07-45.68,78.11c-20.39,34.9-40.76,69.8-61.15,104.7c-16.64,28.47-33.3,56.93-49.93,85.41
		c-19.93,34.12-39.84,68.25-59.76,102.37c-16.22,27.78-32.45,55.57-48.68,83.34c-0.5,0.86-1.07,1.67-1.79,2.78
		c-0.61-0.85-1.16-1.51-1.58-2.23c-10.99-18.73-21.97-37.47-32.96-56.2c-16.13-27.49-32.28-54.97-48.4-82.46
		c-15.61-26.63-31.18-53.28-46.8-79.9c-15.21-25.93-30.46-51.83-45.67-77.76c-18.16-30.96-36.29-61.94-54.45-92.9
		c-14.6-24.89-29.22-49.77-43.82-74.66c-15.11-25.76-30.21-51.52-45.31-77.28c-0.2-0.34-0.29-0.74-0.43-1.11
		c0.54-0.58,1.25-0.58,1.96-0.6c1.01-0.03,2.01-0.02,3.02-0.02c209.21,0,418.41,0,627.62,0.02
		C726.44,136.22,728.2,135.72,729.76,136.8z"/>
	<path class="st0" d="M411.11,49.83c105.29,0,210.58,0,315.86,0.01c4.76,0,4.16-0.54,4.16,4.19c0.02,19.82,0.01,39.64,0.01,59.47
		c0,0.8-0.03,1.61,0,2.41c0.05,1.15-0.49,1.65-1.63,1.6c-0.7-0.03-1.41,0-2.11,0c-210.88,0-421.76,0-632.64,0c-0.3,0-0.6,0-0.91,0
		c-2.94-0.02-2.96-0.02-2.96-2.98c-0.01-20.43,0-40.85,0-61.28c0-3.67-0.23-3.42,3.44-3.42c48.42,0,96.83,0,145.25,0
		C296.76,49.83,353.93,49.83,411.11,49.83z"/>
	<path class="st3" d="M729.76,136.8c-212.02,0-424.05,0-636.07,0c-0.5,0-1.01,0.01-1.51,0.01c-0.43-0.46-0.51-0.93,0.21-1.05
		c0.79-0.13,1.6-0.07,2.41-0.07c210.65,0,421.3,0,631.96,0c0.8,0,1.61-0.02,2.41,0.05C729.81,135.79,729.96,136.23,729.76,136.8z"/>
	<path class="st4" d="M623.1,215.29c-0.98,0.54-1.95,1.08-2.93,1.62c-1.05,1.47-2.7,2.05-4.24,2.74c-6.41,2.87-12.68,6-19.03,8.97
		c-6.92,3.12-13.69,6.54-20.59,9.69c-26.74,12.6-53.46,25.26-80.18,37.91c-17.9,8.48-35.82,16.93-53.74,25.36
		c-27.48,12.92-54.88,26.01-82.41,38.84c-7.56,3.53-14.99,7.36-22.68,10.6c-1.55,0.66-1.92,1.5-1.04,3.03
		c5.96,10.37,11.69,20.88,17.61,31.28c0.75,1.33,1.93,2,3.23,2.57c5.16,2.27,10.36,4.43,15.53,6.65c0.65,0.28,1.3,0.54,1.93,0.86
		c2.86,1.49,2.97,2.39,0.27,4.09c-3.83,2.41-7.74,4.69-11.63,7.01c-4.55,2.67-9.14,5.25-13.61,8.06c-4.29,2.41-8.46,5.02-12.71,7.49
		c-1.09,0.64-2.3,1.87-3.53,0.93c-1.2-0.92-0.42-2.47-0.14-3.68c1.11-4.79,2.17-9.59,3.33-14.36c0.6-1.84,0.15-3.43-0.83-5.11
		c-5.32-9.17-10.46-18.44-15.72-27.64c-0.21-0.37-0.39-0.75-0.59-1.13c-1.47-2.72-3.05-5.39-4.58-8.08
		c-1.8-3.18-1.78-3.19-5.34-1.88c-0.38,0.14-0.75,0.28-1.13,0.41c-4.93,1.82-9.92,3.49-14.83,5.37c-5.35,1.71-10.56,3.83-15.87,5.66
		c-1.2,0.41-2.02,1.27-2.9,2.07c0.26,4.62,1.33,9.12,1.91,13.7c0.24,1.88,1.25,4,0.49,5.56c-0.79,1.6-3.18,1.89-4.89,2.69
		c-3.37,1.58-6.77,3.09-10.16,4.61c-2.4,1.08-2.51,1.05-3.5-1.4c-3.25-8.01-6.48-16.02-9.72-24.04
		c-5.16-12.76-10.33-25.52-15.49-38.29c-0.19-0.47-0.37-0.93-0.55-1.4c-0.78-2.17-0.74-2.27,1.45-2.91
		c2.11-0.61,4.23-1.19,6.34-1.78c2.4-2.08,5.46-2.26,8.37-2.76c1.5-0.26,2.26,1.06,3.02,2.12c2.58,3.57,5.19,7.12,7.55,10.83
		c1.4,2.19,2.83,2.45,4.97,1.36c1.69-0.86,3.41-1.67,5.11-2.54c4.87-2.22,9.76-4.41,14.48-6.96c3.71-1.8,7.52-3.39,11.2-5.26
		c1.66-0.84,2.12-1.75,1.53-3.57c-4.01-12.24-8.5-24.31-12.41-36.58c-0.69-2.16-2.23-3.24-4.14-4.06
		c-4.53-1.94-8.96-4.12-13.45-6.15c-0.82-0.37-1.65-0.77-2.37-1.32c-1.31-1.01-1.35-1.94,0.26-2.68c0.73-0.34,1.52-0.54,2.29-0.77
		c16.36-4.65,32.69-9.38,49.07-13.98c1.2-0.34,2.74-1.35,3.65-0.15c0.89,1.18-0.45,2.42-1.08,3.51c-2.01,3.49-4.11,6.92-6.2,10.36
		c-0.88,1.46-1.23,2.89-0.84,4.58c2.73,11.86,5.81,23.64,8.55,35.5c0.49,2.13,1.37,2.81,3.6,1.97c10.46-3.93,21.13-7.26,31.7-10.83
		c26.88-9.09,53.73-18.29,80.61-27.39c29.74-10.06,59.45-20.2,89.18-30.3c17.44-5.92,34.84-11.94,52.29-17.81
		c7.15-2.17,14.12-4.89,21.23-7.16c6.75-2.31,13.46-4.73,20.31-6.74c0.72-0.22,1.4,0.69,2.15,0.08l0.02-0.01
		C622.05,214.43,622.92,213.87,623.1,215.29z"/>
	<path class="st2" d="M269.92,340.93c-2.19,1.45-4.7,2.24-6.98,3.51c-1.2,0.67-1.91,0.49-2.7-0.69c-2.64-3.92-5.39-7.77-8.1-11.64
		c-2.24-3.2-2.23-3.19-5.95-2.2c-1.84,0.49-3.69,0.96-5.54,1.44c-1.57,0.1-1.96-1.24-2.57-2.2c-5.59-8.86-10.31-18.17-14.22-27.9
		c-7.69-19.17-13.06-39.03-17.44-59.17c-3.45-15.89-6.31-31.89-8.61-47.99c-1.22-8.55-2.19-17.12-3.3-25.68
		c-0.27-2.06,0.05-2.38,2.09-1.81c9.19,2.55,18.4,5.01,27.68,7.24c14.55,3.49,29.2,6.51,44,8.71c8.84,1.31,17.73,2.19,26.66,2.74
		c10.1,0.62,20.07-0.17,30.07-1.28c28.33-3.15,55.96-9.65,83.33-17.4c1.92-0.54,3.65-0.4,5.56,0.14
		c17.78,5.03,35.75,9.33,53.91,12.72c11.94,2.23,23.94,4.14,36.06,5.12c6.31,0.51,12.62,1.11,18.96,0.99
		c10.05-0.19,20.04-1.24,29.99-2.7c19.6-2.87,38.87-7.26,58.01-12.29c4.56-1.2,9.1-2.49,13.65-3.75c2.91-0.81,3.09-0.73,2.78,2.37
		c-0.41,4.09-0.95,8.18-1.46,12.26c-1.11,8.86-2.39,17.7-3.88,26.51c-0.37,2.18-0.75,4.35-1.13,6.52c-0.24,0.67-1.02,0.32-1.39,0.74
		c-6.33,2.09-12.65,4.19-18.98,6.28c-0.57,0.19-1.14,0.36-1.71,0.54c-2.26-0.28-1.24-2-1.1-3c0.58-3.98,1.34-7.93,2.01-11.9
		c0.57-3.37,1.03-6.76,1.55-10.14c0.45-2.93,0.16-3.22-2.8-2.65c-10.28,1.97-20.61,3.64-30.96,5.2
		c-20.62,3.11-41.32,5.32-62.21,4.42c-13.88-0.6-27.61-2.78-41.29-5.23c-16.35-2.92-32.55-6.58-48.63-10.72
		c-2.82-0.73-5.49-0.75-8.31-0.01c-19.18,5.05-38.56,9.2-58.09,12.64c-17.52,3.08-35.19,4.16-52.9,3.27
		c-16.47-0.83-32.85-2.92-49.14-5.59c-7.75-1.27-15.49-2.54-23.2-4.02c-2.76-0.53-3.14-0.2-2.73,2.53
		c5.27,34.78,12.38,69.11,25.27,102.01c5.32,13.59,12.79,25.95,21.52,37.6C268.69,337.81,270.13,338.97,269.92,340.93z"/>
	<path class="st2" d="M274.76,374.61c-0.63-1.4,0.12-1.93,1.34-2.36c4.7-1.64,9.37-3.34,14.05-5.01c1.02-0.36,1.98-0.95,3.13-0.87
		c0.97,0.1,1.64,0.71,2.28,1.36c12.46,12.62,26.05,23.94,40.02,34.82c0.74,0.58,1.29,1.26,1.64,2.12
		c-1.31,6.02-2.62,12.04-3.94,18.12c1.28,0.08,1.99-0.72,2.82-1.18c4.55-2.49,8.77-5.55,13.52-7.7c3,0.64,5.01,2.91,7.36,4.57
		c16.61,11.74,33.63,22.83,51.13,33.19c2.07,1.22,3.76,1.18,5.86-0.04c20.37-11.86,39.97-24.89,58.97-38.82
		c13.8-10.12,27.23-20.7,39.94-32.15c17.9-16.12,34.63-33.33,48.16-53.42c10.22-15.19,17.04-31.9,22.46-49.25
		c4.81-15.38,8.57-31.02,11.77-46.81c0.22-1.09,0.5-2.16,1.23-3.05c3.46-2.06,7.19-3.56,10.81-5.29c4.25-2.04,8.56-3.96,12.85-5.93
		c-0.49,6.02-1.96,11.87-3.15,17.77c-3.21,15.96-7.1,31.74-12.05,47.26c-3.33,10.45-7.16,20.7-11.91,30.59
		c-5.46,11.37-12.27,21.92-19.91,31.94c-11.68,15.32-24.9,29.21-38.98,42.33c-29.83,27.81-62.66,51.63-96.96,73.52
		c-7.97,5.09-16.07,9.95-24.21,14.75c-1.53,0.9-2.64,0.8-4.1-0.04c-13.25-7.62-26.15-15.82-38.9-24.24
		c-19.65-12.97-38.63-26.86-56.88-41.74c-12.79-10.43-25.05-21.45-36.77-33.08C275.86,375.49,275.3,375.07,274.76,374.61z"/>
	<path class="st5" d="M463.66,518.76c5.27,2.91,5.95,7.36,4.88,12.52c-0.71,3.45-2.68,5.76-5.92,7.01
		c-1.88,0.73-3.88,1.09-5.88,1.12c-4.22,0.07-8.44-0.02-12.66,0.06c-1.54,0.03-2.11-0.5-2.11-2.08c0.04-11.75,0.03-23.5,0.02-35.24
		c0-1.16,0.23-1.96,1.64-1.9c5.2,0.23,10.42-0.38,15.63,0.43c4.21,0.65,7.45,2.32,8.64,6.72
		C469.12,511.95,467.88,515.69,463.66,518.76z"/>
	<path class="st5" d="M411.05,516.23c0-4.62,0.04-9.24-0.02-13.87c-0.02-1.49,0.39-2.23,2.03-2.14c1.8,0.1,3.62,0,5.43,0.03
		c2.28,0.04,2.33,0.06,2.33,2.38c0.02,8.04,0.01,16.08,0.01,24.12c0,1.11-0.07,2.22,0.04,3.31c0.21,2.03,1.55,3.26,3.33,3.2
		c1.75-0.06,3.11-1.36,3.22-3.33c0.12-2,0.05-4.02,0.05-6.03c0-7.13-0.02-14.27,0.01-21.4c0.01-2.17,0.06-2.2,2.16-2.25
		c2.01-0.04,4.02,0.05,6.03-0.03c1.44-0.06,1.96,0.52,1.93,1.94c-0.06,3.31-0.02,6.63-0.02,9.95c0,5.12-0.04,10.25,0.02,15.37
		c0.02,1.73-0.23,3.42-0.64,5.06c-1.07,4.3-4.18,6.57-8.31,7.31c-3.36,0.6-6.79,0.63-10.16-0.33c-4.55-1.3-7.26-4.72-7.45-9.43
		c-0.01-0.2-0.01-0.4-0.01-0.6C411.05,525.08,411.05,520.65,411.05,516.23z"/>
	<path class="st5" d="M354.89,519.89c0-3.12-0.05-6.23,0.01-9.35c0.14-6.69,3.97-10.66,10.65-10.96c2.7-0.12,5.41-0.27,8.08,0.47
		c5.04,1.38,7.71,4.49,7.87,9.69c0.16,5.17,0.28,4.25-3.98,4.34c-0.3,0.01-0.6,0.02-0.9,0c-1.49-0.12-3.25,0.58-4.4-0.36
		c-1.05-0.86-0.59-2.63-0.88-3.98c-0.47-2.17-1.55-3.35-3.23-3.33c-2.06,0.03-3.34,1.33-3.42,3.79c-0.1,3.31-0.04,6.63-0.04,9.95
		c0,3.12-0.06,6.23,0.02,9.35c0.06,2.35,1.19,3.62,3.09,3.76c1.67,0.12,2.97-1,3.63-2.97c0.49-1.48,0.4-2.98,0.38-4.48
		c-0.01-1.28,0.58-1.85,1.8-1.86c2.11-0.01,4.22,0.01,6.33-0.02c1.1-0.01,1.69,0.42,1.66,1.6c-0.05,1.81,0.12,3.64-0.11,5.42
		c-0.57,4.33-3.19,7.07-7.24,8.4c-3.5,1.15-7.17,1.15-10.75,0.58c-5.13-0.81-8.29-4.52-8.53-9.8c-0.15-3.41-0.03-6.83-0.03-10.25
		C354.91,519.89,354.9,519.89,354.89,519.89z"/>
	<path class="st5" d="M385.75,519.86c0-5.74-0.02-11.47,0.01-17.21c0.01-2.34,0.05-2.36,2.33-2.4c1.81-0.03,3.62-0.03,5.44,0
		c2.3,0.04,2.35,0.06,2.36,2.37c0.02,7.65,0.01,15.29,0.01,22.94c0,1.31,0.07,2.62-0.01,3.92c-0.1,1.61,0.64,2.11,2.15,2.06
		c2.51-0.07,5.03,0.05,7.55-0.04c1.6-0.05,2.1,0.63,2.07,2.14c-0.14,7.08,0.9,5.66-5.64,5.77c-4.73,0.08-9.46-0.03-14.19,0.04
		c-1.58,0.02-2.1-0.57-2.08-2.11C385.79,531.53,385.76,525.69,385.75,519.86z"/>
	<path class="st6" d="M623.1,215.29c-0.41-0.76-1.17-0.54-1.82-0.63c1.61-1.04,3.45-1.47,5.28-1.9c0.7-0.26,0.83,0.11,0.75,0.69
		C625.94,214.12,624.66,215.03,623.1,215.29z"/>
	<path class="st7" d="M629.67,211.58c0.89-0.69,1.95-0.85,3.25-0.65c-0.88,0.42-1.76,0.84-2.64,1.25
		C630.07,211.99,629.7,211.95,629.67,211.58z"/>
	<path class="st8" d="M629.67,211.58c0.2,0.2,0.41,0.4,0.61,0.6c-0.99,0.42-1.98,0.84-2.96,1.27c-0.25-0.23-0.5-0.46-0.75-0.69
		C627.51,212.12,628.6,211.86,629.67,211.58z"/>
	<path class="st6" d="M619.4,215.26c0.34-0.47,0.91-0.53,1.39-0.74c0.16,0.05,0.32,0.1,0.48,0.15
		C620.81,215.4,620.11,215.32,619.4,215.26z"/>
	<path class="st2" d="M210.66,70.3c-0.25,6.92-0.5,13.69-0.75,20.46c-0.14,3.61-0.35,7.22-0.42,10.84c-0.03,1.47-0.64,2-2.02,1.84
		c-1.7-0.2-3.39-0.15-5.1-0.03c-1.94,0.14-2.23-0.08-2.03-1.98c0.51-4.9,0.51-9.83,0.88-14.73c0.05-0.7,0.2-1.4,0.2-2.1
		c0.01-7.84,0.9-15.65,0.76-23.5c-0.05-2.88,0.04-2.89,3.06-2.89c2.31,0,4.63,0.12,6.94-0.04c1.87-0.13,2.89,0.63,3.82,2.18
		c5.91,9.81,11.9,19.57,17.87,29.35c0.31,0.5,0.64,0.99,1.14,1.77c0.87-1.21,0.81-2.37,0.84-3.49c0.28-9.04,0.56-18.08,0.83-27.11
		c0.08-2.63,0.07-2.63,2.72-2.65c1.41-0.01,2.82-0.01,4.22,0c2.54,0.03,2.73,0.1,2.46,2.48c-0.37,3.2-0.39,6.41-0.61,9.62
		c-0.55,8.12-1.03,16.24-1.17,24.37c-0.04,2.41-0.3,4.81-0.39,7.22c-0.04,1.18-0.61,1.6-1.71,1.54c-3.01-0.17-6.01-0.22-9.02,0.01
		c-1.23,0.09-1.72-0.7-2.28-1.6c-6.15-9.9-12.33-19.78-18.52-29.66C211.99,71.55,211.73,70.75,210.66,70.3z"/>
	<path class="st2" d="M296.24,96.31c2.27,0.18,4.25-0.65,6.3-1.08c1.48-0.31,1.78,0.03,1.64,1.57c-0.02,0.2-0.05,0.4-0.08,0.6
		c-0.82,5.16-0.82,5.14-6.12,5.58c-6.21,0.52-12.4,1.21-18.65,1.2c-4.15-0.01-8.25-0.44-12.17-1.8c-10-3.47-15.89-12.24-14.54-23.86
		c1.4-12.05,10.18-19.53,22.16-20.92c6.27-0.72,12.3-0.19,17.87,2.75c6.83,3.6,10.48,9.46,11.03,17.19
		c0.49,6.93-1.49,12.9-6.86,17.55C296.55,95.35,296.16,95.57,296.24,96.31z"/>
	<path class="st2" d="M193.77,80.07c-0.24,8.65-3.12,15.99-11,20.43c-5.85,3.3-12.31,4.18-18.95,3.45
		c-3.29-0.36-6.53-1.04-9.56-2.51c-7.59-3.67-11.52-9.78-11.86-18.13c-0.31-7.54,1.58-14.35,7.45-19.56
		c3.63-3.22,8.01-4.92,12.7-5.85c5.31-1.05,10.59-0.84,15.78,0.66C186.54,60.94,194.26,68.17,193.77,80.07z"/>
	<path class="st2" d="M608.68,80.02c-0.23,8.65-3.1,16-10.97,20.46c-5.84,3.31-12.3,4.2-18.95,3.48c-2.38-0.26-4.75-0.71-7.05-1.49
		c-9.04-3.06-14.29-10.16-14.44-19.7c-0.12-7.33,1.76-13.92,7.44-18.97c3.71-3.3,8.19-5.03,12.99-5.93
		c4.58-0.86,9.14-0.69,13.74,0.25C600.46,59.95,609.16,67.62,608.68,80.02z"/>
	<path class="st2" d="M521.43,103.43c-4.16,0.18-8.06-0.37-11.98-0.02c-2.27,0.2-2.35,0-2.24-2.37c0.17-3.31,0.43-6.61,0.67-9.91
		c0.69-9.62,1.05-19.25,1.13-28.89c0.01-0.7,0.06-1.41,0-2.11c-0.11-1.43,0.52-1.96,1.94-1.94c3.52,0.05,7.04,0.02,10.56-0.01
		c4.11-0.03,8.2-0.28,12.33-0.02c10.15,0.66,16.76,6.49,17.9,16.53c0.53,4.61,0.25,9.21-1.3,13.69
		c-3.01,8.67-9.06,13.55-18.13,14.51C528.62,103.29,524.91,103.74,521.43,103.43z"/>
	<path class="st2" d="M311.43,86.16c0.42-8.73,0.85-17.45,1.23-26.18c0.06-1.27,0.53-1.81,1.81-1.78c2.21,0.05,4.43,0.07,6.64,0
		c1.5-0.05,1.91,0.64,1.82,2.01c-0.31,4.91-0.48,9.83-0.88,14.73c-0.37,4.51-0.56,9.03-0.37,13.55c0.18,4.15,2.3,6.68,6.26,7.84
		c2.36,0.69,4.74,0.81,7.14,0.24c4.86-1.15,7.19-3.74,7.84-8.67c0.64-4.88,0.97-9.79,1.14-14.7c0.15-4.32,0.8-8.61,0.59-12.94
		c-0.08-1.58,0.58-2.13,2.12-2.07c2.11,0.09,4.23,0.08,6.33,0.01c1.45-0.05,1.97,0.53,1.88,1.95c-0.31,4.81-0.41,9.64-0.88,14.43
		c-0.29,3.01-0.23,6.02-0.44,9.03c-0.23,3.2-0.35,6.41-1.13,9.55c-0.91,3.65-3.18,6.23-6.44,7.94c-5.92,3.1-12.3,3.47-18.79,2.81
		c-3.21-0.32-6.31-1.09-9.2-2.64c-4.38-2.35-6.78-5.84-6.73-10.89c0.01-1.41,0-2.81,0-4.22C311.39,86.16,311.41,86.16,311.43,86.16z
		"/>
	<path class="st2" d="M628.88,78.47c2.42,0.46,4.9,0.45,7.33-0.28c2.75-0.82,4.84-2.34,5.72-5.25c1.24-4.07-0.68-7.41-4.94-7.85
		c-3.09-0.32-6.23-0.11-9.35-0.15c-1.25-0.02-1.44,0.76-1.48,1.78c-0.18,5.12-0.43,10.24-0.59,15.36
		c-0.19,6.33,0.05,12.67-0.52,18.99c-0.22,2.4-0.28,2.64-2.68,2.34c-1.73-0.22-3.41,0.08-5.1,0.06c-2.02-0.03-2.18-0.1-2.07-1.99
		c0.26-4.91,0.62-9.82,0.94-14.73c0.07-1,0.2-2,0.23-3c0.22-7.63,0.41-15.27,0.62-22.91c0.07-2.56,0.07-2.56,2.76-2.59
		c4.82-0.06,9.64,0.04,14.47-0.29c2.68-0.18,5.44,0.11,8.11,0.53c5.53,0.87,9.19,4.65,9.68,9.66c0.55,5.61-2.71,11.1-7.75,13.05
		c-1.48,0.57-3.1,0.76-4.61,1.68c2.48,5.12,5.36,9.95,8.1,14.85c0.73,1.32,1.52,2.61,2.17,3.97c0.67,1.39,0.41,1.86-1.19,1.73
		c-2.32-0.19-4.61-0.01-6.91,0.06c-1.24,0.04-2.09-0.3-2.57-1.56c-2.9-7.62-6.69-14.83-10.28-22.14
		C628.77,79.41,628.62,79.05,628.88,78.47z"/>
	<path class="st2" d="M479.95,58.22c1.77,0.23,4.1-0.79,5.67,0.44c1.43,1.12,1.48,3.43,2.13,5.22c4.45,12.17,8.87,24.36,13.3,36.54
		c0.17,0.47,0.4,0.93,0.55,1.4c0.31,0.96,0.05,1.7-1.05,1.6c-2.61-0.24-5.21,0.06-7.82,0.04c-1.35-0.01-1.57-1.01-1.89-1.97
		c-1.26-3.81-2.51-7.63-3.81-11.43c-0.94-2.75-0.98-2.75-3.76-2.76c-4.23-0.01-8.45,0.06-12.68-0.03c-1.54-0.03-2.37,0.52-2.98,1.91
		c-1.75,3.95-3.63,7.85-5.44,11.77c-1.16,2.5-1.41,2.79-4.12,2.45c-2.13-0.27-4.21,0.19-6.31,0.07c-1.3-0.07-1.63-0.58-1.01-1.71
		c0.58-1.06,1.21-2.09,1.77-3.16c6.55-12.46,13.25-24.84,19.39-37.51c1.1-2.27,2.39-3.24,4.83-2.89
		C477.71,58.34,478.73,58.22,479.95,58.22z"/>
	<path class="st2" d="M676.5,58.21c4.73,0,9.46-0.02,14.18,0.01c2.3,0.01,2.39,0.07,2.04,2.38c-0.22,1.44,0.62,3.4-0.78,4.21
		c-1.06,0.62-2.74,0.19-4.14,0.19c-5.13,0.01-10.26-0.03-15.39,0.01c-2.53,0.02-2.6,0.11-2.7,2.49c-0.11,2.51-0.08,5.03-0.2,7.54
		c-0.07,1.46,0.54,1.96,1.94,1.93c2.71-0.05,5.43,0.02,8.15,0.01c2.41-0.01,4.83-0.03,7.24-0.07c2.62-0.05,2.34,0.23,2.21,2.29
		c-0.33,5.2,0.58,4.6-4.81,4.62c-4.52,0.02-9.05-0.2-13.56,0.32c-1.01,0.12-1.72,0.28-1.76,1.52c-0.11,2.91-0.27,5.82-0.5,8.72
		c-0.13,1.62,0.58,2.09,2.09,2.06c5.73-0.09,11.47-0.1,17.2-0.14c0.7,0,1.41-0.01,2.11-0.04c1-0.04,1.52,0.41,1.43,1.44
		c-0.15,1.6-0.31,3.2-0.49,4.79c-0.07,0.56-0.44,0.89-1.01,0.91c-0.8,0.03-1.61,0.05-2.41,0.05c-8.44,0-16.88-0.01-25.32,0
		c-4.58,0-4.19,0.3-3.86-4.07c0.9-11.72,1.24-23.47,1.73-35.2c0.06-1.31,0.1-2.62,0.01-3.92c-0.1-1.59,0.58-2.1,2.11-2.08
		C666.84,58.25,671.67,58.21,676.5,58.21z"/>
	<path class="st2" d="M136.85,65.97c-3.06-0.49-5.82-1.09-8.6-1.34c-6.1-0.53-11.57,0.93-15.81,5.68
		c-4.7,5.27-5.44,14.72-1.47,20.56c2.67,3.92,6.64,5.71,11.28,6.05c3.53,0.26,7.02-0.11,10.47-0.93c1.06-0.25,2.13-0.47,3.4-0.75
		c0.07,2.36-0.5,4.47-0.88,6.6c-0.12,0.66-0.43,1.08-1.13,1.21c-9.7,1.7-19.23,2.18-27.84-3.86c-4.56-3.2-6.94-7.74-7.67-13.14
		c-1.14-8.53,0.59-16.23,7.17-22.27c3.66-3.36,8.15-5.08,12.98-5.96c5.41-0.98,10.79-0.5,16.18,0.39c1.36,0.23,1.95,0.79,1.93,2.13
		C136.83,62.15,136.85,63.95,136.85,65.97z"/>
	<path class="st2" d="M726.24,66.09c-2.17-0.51-4.08-1.01-6.01-1.41c-2.5-0.52-5-0.55-7.41,0.46c-3.66,1.53-4.54,4.85-1.77,7.69
		c2.59,2.65,5.53,4.96,8.31,7.42c2.03,1.8,4.09,3.57,5.64,5.84c3.47,5.11,2.25,11.62-2.89,15.11c-4.12,2.8-8.82,3.23-13.59,2.89
		c-2.79-0.2-5.56-0.82-8.33-1.25c-1.47-0.23-2.35-0.91-2.2-2.59c0.09-0.99-0.01-2.01-0.12-3.01c-0.31-2.96-0.33-2.97,2.59-1.85
		c3.23,1.24,6.56,1.82,10.03,1.61c1.44-0.09,2.79-0.41,4-1.17c2.62-1.65,3.15-4.67,1.07-6.96c-1.62-1.78-3.45-3.36-5.22-5.01
		c-2.28-2.12-4.64-4.16-6.88-6.32c-3.32-3.2-5.15-6.91-3.67-11.65c1.49-4.78,5.14-7.03,9.69-8.06c4.89-1.1,9.79-0.51,14.65,0.39
		c0.69,0.13,1.48,0.14,1.56,1.08C725.89,61.49,726.05,63.66,726.24,66.09z"/>
	<path class="st2" d="M408.74,66.06c-2.35-0.54-4.28-1.05-6.24-1.43c-2.3-0.44-4.6-0.5-6.83,0.38c-3.81,1.51-4.7,4.79-2.08,7.89
		c0.77,0.91,1.73,1.67,2.67,2.43c3.53,2.84,6.79,5.96,10.05,9.11c5.08,4.92,4.25,14.22-3.47,17.85c-3.64,1.72-7.54,2.13-11.48,1.81
		c-2.89-0.24-5.76-0.81-8.63-1.26c-1.21-0.19-1.93-0.82-2.07-2.16c-0.21-1.98-0.48-3.94-0.16-6.09c2.24,0.65,4.35,1.24,6.44,1.89
		c2.26,0.7,4.57,0.55,6.88,0.46c1.24-0.05,2.35-0.54,3.39-1.17c2.23-1.36,2.85-3.66,1.64-5.99c-0.76-1.46-2.03-2.47-3.22-3.55
		c-3.51-3.16-7.27-6.05-10.46-9.55c-4.08-4.49-4.29-10.38-0.55-14.78c1.83-2.15,4.29-3.32,6.97-3.95
		c5.09-1.19,10.17-0.65,15.24,0.29c0.96,0.18,1.33,0.64,1.52,1.54C408.72,61.76,408.65,63.75,408.74,66.06z"/>
	<path class="st2" d="M433.81,58.21c5.53,0,11.06-0.02,16.59,0.01c2.25,0.01,2.38,0.2,2.26,2.42c-0.26,4.63-0.26,4.61-4.79,4.45
		c-2.51-0.09-5.03-0.02-7.54-0.09c-1.31-0.04-2.1,0.27-2.1,1.8c0,3.01-0.52,5.99-0.56,9.01c-0.11,8.43-0.85,16.85-0.72,25.3
		c0.03,2.21-0.25,2.48-2.47,2.31c-2.01-0.16-4-0.07-6,0.01c-1.94,0.08-2-0.14-1.9-2.03c0.28-5.31,0.7-10.62,0.96-15.93
		c0.29-5.92,0.49-11.84,0.57-17.76c0.04-2.65,0-2.71-2.63-2.67c-3.11,0.04-6.23-0.14-9.33,0.36c-1.32,0.21-2.07-0.18-2.01-1.76
		c0.24-6.64-0.53-5.33,5.2-5.4C424.16,58.16,428.99,58.21,433.81,58.21z"/>
	<path class="st2" d="M367.18,103.44c-1.21,0-2.41-0.01-3.62,0c-1.02,0.01-1.44-0.52-1.4-1.5c0.03-0.7,0-1.41,0.06-2.11
		c0.91-11.21,1.03-22.45,1.61-33.67c0.11-2.1,0.08-4.22,0.07-6.33c-0.01-1.13,0.48-1.64,1.62-1.62c2.31,0.03,4.62,0.06,6.93-0.02
		c1.49-0.05,1.92,0.61,1.83,1.99c-0.34,5.01-0.48,10.03-0.81,15.03c-0.42,6.32-0.35,12.64-0.5,18.96c-0.06,2.51-0.11,5.01-0.33,7.52
		c-0.11,1.27-0.56,1.81-1.83,1.76C369.59,103.4,368.38,103.45,367.18,103.44C367.18,103.44,367.18,103.44,367.18,103.44z"/>
	<path class="st9" d="M578.05,229.1c-24.25,8.26-48.49,16.53-72.74,24.78c-60.01,20.4-120.02,40.8-180.02,61.2
		c-1.52,0.52-2.99,1.16-4.48,1.74c-0.95-0.71-0.84-1.8-1.07-2.75c-2.97-12.09-5.87-24.2-8.93-36.27c-0.52-2.05-0.2-3.59,0.9-5.32
		c2.74-4.32,5.29-8.75,8.27-13.71c-19.17,5.48-37.73,10.78-56.29,16.08c0.01,0.19,0.02,0.38,0.03,0.57c5,2.31,9.88,4.91,15.02,6.83
		c4.06,1.52,6.09,4.05,7.38,8.13c3.64,11.49,7.71,22.84,11.61,34.24c0.29,0.85,0.58,1.7,0.96,2.83c-4.83,2.25-9.64,4.49-14.45,6.74
		c-1.59-0.44-2.37-1.79-3.29-2.97c-11.24-14.36-18.8-30.65-24.84-47.71c-7.49-21.19-13.19-42.88-17.87-64.84
		c-1.22-5.7-0.57-6.29,5.07-5.46c14.93,2.2,29.91,3.88,44.97,4.95c6.52,0.47,13.05,0.84,19.56,1.01c18.52,0.49,36.68-2.49,54.7-6.51
		c14.25-3.18,28.37-6.85,42.33-11.11c3.45-1.05,6.65-0.89,10.05,0.09c16.54,4.75,33.19,9.12,50.11,12.34
		c13.05,2.48,26.13,4.55,39.49,4.76c15.1,0.24,30.11-0.72,45.11-2.27c9.61-0.99,19.19-2.21,28.75-3.55
		c3.02-0.42,3.77,0.35,3.28,3.24c-0.57,3.37-1.24,6.73-2.09,10.05C579.3,227.31,578.92,228.33,578.05,229.1z"/>
	<path class="st9" d="M362.94,406.01c3.43-2.63,7.34-4.48,10.96-6.79c0.91-0.58,2.04-0.89,2.75-2.05c-6.3-2.7-12.52-5.49-18.84-8.01
		c-2.59-1.03-4.23-2.63-5.56-5.05c-5.55-10.13-11.29-20.16-16.95-30.23c-1.33-2.37-1.3-2.34,1.09-3.28
		c6.08-2.4,11.87-5.42,17.77-8.2c73.01-34.47,146.01-68.97,219.01-103.45c0.9-0.43,1.86-0.73,2.79-1.09
		c0.75,0.95,0.25,1.95,0.01,2.88c-5.76,22.97-12.58,45.6-22.86,67c-5.86,12.21-13.82,23.11-22.58,33.42
		c-16.49,19.4-35.45,36.17-55.44,51.83c-19.36,15.15-39.73,28.82-60.6,41.79c-3.35,2.08-5.9,2.13-9.32,0.05
		c-13.51-8.21-26.58-17.07-39.58-26.06C364.55,408.04,363.27,407.46,362.94,406.01z"/>
	<path class="st0" d="M578.05,229.1c1.11-5.1,2.22-10.2,3.32-15.24c-0.63-0.54-1.24-0.41-1.83-0.31
		c-12.31,1.97-24.7,3.38-37.11,4.53c-15.03,1.39-30.1,2.29-45.2,1.36c-10.65-0.66-21.16-2.41-31.62-4.45
		c-18.05-3.52-35.84-8.11-53.48-13.27c-1.73-0.51-3.27-0.42-4.98,0.1c-17.9,5.36-35.95,10.13-54.28,13.77
		c-17.03,3.38-34.17,5.01-51.57,4.18c-20.41-0.98-40.7-3.06-60.89-6.14c-0.67-0.1-1.38-0.37-2.15,0.19
		c0.36,3.43,1.25,6.82,2.01,10.22c4.28,19.02,9.24,37.85,15.67,56.27c5.18,14.83,11.12,29.31,19.98,42.42
		c2.65,3.91,5.41,7.75,8.33,11.47c-4.68,2.45-9.41,4.79-14.33,6.73c-4.72-6.51-9.52-12.95-13.69-19.84
		c-7.16-11.86-12.3-24.6-16.65-37.7c-6.15-18.52-10.65-37.45-14.47-56.56c-2.04-10.23-3.75-20.53-5.33-30.84
		c-0.09-0.59-0.11-1.2-0.16-1.8c-0.07-0.89,0.35-1.34,1.24-1.21c0.89,0.13,1.77,0.34,2.66,0.5c13.51,2.56,27.08,4.77,40.72,6.58
		c6.46,0.85,12.97,1.46,19.46,2.1c11.53,1.14,23.08,1.39,34.64,1.08c6.94-0.18,13.83-1.02,20.68-1.97
		c11.83-1.64,23.56-3.86,35.25-6.33c11.59-2.45,23.09-5.27,34.56-8.23c1.52-0.39,2.9-0.41,4.42-0.02
		c15.06,3.92,30.22,7.41,45.51,10.29c11.34,2.14,22.75,3.88,34.23,5.18c11.44,1.29,22.88,1.49,34.33,0.91
		c9.32-0.47,18.61-1.49,27.87-2.68c9.86-1.27,19.67-2.8,29.48-4.42c4.95-0.82,9.87-1.79,14.81-2.7c0.39-0.07,0.78-0.21,1.18-0.25
		c1.69-0.2,2.03,0.07,1.79,1.76c-0.43,3.08-0.94,6.15-1.45,9.21c-0.92,5.54-1.86,11.08-2.81,16.62c-0.11,0.62-0.29,1.19,0.5,1.47
		C591.87,224.54,585,226.95,578.05,229.1z"/>
	<path class="st0" d="M362.94,406.01c14.3,10.09,28.82,19.83,43.79,28.89c2.17,1.31,3.74,1.38,5.94,0.04
		c33.4-20.38,65.15-42.97,93.81-69.72c10.24-9.56,19.78-19.76,28.53-30.71c11.29-14.13,19.63-29.85,25.86-46.77
		c6.02-16.33,10.87-33.01,15.09-49.89c5.12-2.48,10.23-4.97,15.37-7.43c1.71-0.82,3.46-1.53,5.19-2.29
		c-0.59,5.1-1.91,10.05-3.03,15.03c-3.11,13.92-6.91,27.66-11.26,41.25c-7.79,24.32-20.38,45.79-37.22,64.94
		c-13.99,15.91-29.35,30.35-45.65,43.84c-25.71,21.26-53.15,40.05-81.73,57.2c-1.21,0.72-2.53,1.28-3.64,2.13
		c-1.95,1.48-3.62,1.36-5.75,0.1c-19.85-11.72-39.11-24.32-57.73-37.9c-0.32-0.23-0.58-0.53-0.87-0.8
		C353.86,410.94,358.35,408.4,362.94,406.01z"/>
	<path class="st0" d="M337.23,404.68c-10.37-7.75-20.24-16.1-29.87-24.74c-4.85-4.35-9.68-8.73-14.07-13.56
		c4.92-2.22,10.03-3.92,15.18-5.51c4.37,2.53,7.7,6.21,10.99,9.93c0.23,0.51,0.88,0.63,1.08,1.17c4.16,7.23,8.33,14.45,12.49,21.69
		c1.25,2.18,2.39,4.43,3.75,6.54C337.74,401.68,338.1,403.09,337.23,404.68z"/>
	<path class="st10" d="M319.48,371.07c-3.87-3.19-7.43-6.7-11.01-10.2c4.66-2.37,4.68-2.38,7.13,2c1.52,2.7,2.98,5.44,4.46,8.16
		C319.88,371.26,319.69,371.27,319.48,371.07z"/>
	<path class="st11" d="M319.48,371.07c0.2-0.01,0.39-0.02,0.59-0.04c0.45,0.16,0.48,0.54,0.48,0.94
		C320.08,371.79,319.68,371.55,319.48,371.07z"/>
	<path class="st12" d="M452.11,527.49c0-0.5-0.09-1.02,0.02-1.49c0.26-1.11-0.86-2.82,1.12-3.22c2.1-0.43,4.84,0.85,5.34,2.44
		c0.5,1.55,0.47,3.19,0.01,4.73c-0.55,1.82-4.3,3.1-5.93,2.14c-0.5-0.29-0.53-0.8-0.54-1.3c-0.01-1.1,0-2.2,0-3.3
		C452.12,527.49,452.11,527.49,452.11,527.49z"/>
	<path class="st13" d="M452.39,515.63c-0.55-2.36-0.2-4.67-0.25-6.95c-0.01-0.51,0.15-1.04,0.78-1.11c1.4-0.16,2.85-0.32,4.07,0.59
		c1.65,1.23,1.38,3.02,1.13,4.7c-0.22,1.44-1.19,2.29-2.66,2.47C454.47,515.44,453.48,515.52,452.39,515.63z"/>
	<path class="st0" d="M262.4,81.51c-0.03-8.91,4.66-14.94,12.98-16.71c9.09-1.94,19.29,3.16,18.36,16.89
		c-0.18,2.69-0.9,5.34-2.24,7.76c-3.55,6.4-11.28,8.18-16.62,7.27C266.29,95.24,262.15,88.99,262.4,81.51z"/>
	<path class="st0" d="M183.58,80.16c-0.06,1.11,0,2.44-0.24,3.71c-1.05,5.73-3.91,10.17-9.63,12.1c-6.03,2.04-11.74,1.19-16.74-2.9
		c-2.26-1.85-3.43-4.46-3.96-7.29c-1.2-6.36-0.33-12.26,4.43-17.05c5.12-5.15,14.39-5.91,20.33-1.72c3.41,2.41,5.08,5.88,5.64,9.93
		C183.55,77.94,183.52,78.95,183.58,80.16z"/>
	<path class="st0" d="M598.33,80.08c0.02,1.7,0.01,3.39-0.38,5.08c-2.93,12.86-17.43,14.38-25.27,8.62
		c-1.57-1.15-2.71-2.66-3.56-4.41c-3.48-7.14-1.62-16.83,4.16-21.53c5.24-4.26,13.65-4.71,19.22-0.92
		c3.55,2.42,5.23,6.01,5.81,10.15C598.45,78.05,598.33,79.07,598.33,80.08z"/>
	<path class="st0" d="M525.71,64.97c1.51,0,3.01-0.07,4.51,0.01c6.15,0.31,9.97,3.43,11.15,9.43c0.68,3.45,0.68,6.97-0.29,10.42
		c-2.03,7.16-5.99,10.63-13.39,11.37c-2.88,0.29-5.81,0.09-8.72,0.14c-1.13,0.02-1.67-0.46-1.59-1.61c0.04-0.6,0.01-1.2,0.04-1.8
		c0.39-8.61,0.77-17.22,1.17-25.82c0.1-2.06,0.13-2.08,2.3-2.14c1.6-0.04,3.21-0.01,4.82-0.01
		C525.71,64.96,525.71,64.97,525.71,64.97z"/>
	<path class="st14" d="M479.32,65.87c1.46,4.34,2.9,8.69,4.39,13.03c0.35,1.03,0.05,1.58-1,1.59c-3.2,0.03-6.4,0.02-9.6-0.01
		c-0.96-0.01-1.21-0.64-0.83-1.44c2.11-4.4,4.25-8.78,6.38-13.16C478.87,65.87,479.09,65.87,479.32,65.87z"/>
</g>
</svg>
